<mxfile host="app.diagrams.net" agent="Mozilla/5.0 (Windows NT 10.0; Win64; x64) AppleWebKit/537.36 (KHTML, like Gecko) Chrome/132.0.0.0 Safari/537.36" version="26.0.8">
  <diagram name="Страница — 1" id="wFubchk-vTQxK_goAiXa">
    <mxGraphModel dx="190" dy="1064" grid="1" gridSize="10" guides="1" tooltips="1" connect="1" arrows="1" fold="1" page="1" pageScale="1" pageWidth="827" pageHeight="1169" math="0" shadow="0">
      <root>
        <mxCell id="0" />
        <mxCell id="1" parent="0" />
        <mxCell id="uSNYwaKhcgyRO1dyMONw-1" value="Event" style="swimlane;fontStyle=1;align=center;verticalAlign=top;childLayout=stackLayout;horizontal=1;startSize=26;horizontalStack=0;resizeParent=1;resizeParentMax=0;resizeLast=0;collapsible=1;marginBottom=0;whiteSpace=wrap;html=1;" parent="1" vertex="1">
          <mxGeometry x="1780" y="130" width="170" height="218" as="geometry" />
        </mxCell>
        <mxCell id="uSNYwaKhcgyRO1dyMONw-2" value="id: bigserial&lt;div&gt;parent_id: bigint&lt;/div&gt;&lt;div&gt;user_id: bigint&lt;/div&gt;&lt;div&gt;location: geography&lt;br&gt;&lt;div&gt;created: timestamp&lt;/div&gt;&lt;div&gt;updated: timestamp&lt;br&gt;&lt;div&gt;&lt;span style=&quot;background-color: initial;&quot;&gt;title: varchar&lt;/span&gt;&lt;div&gt;&lt;div&gt;description: text&lt;/div&gt;&lt;div&gt;media_type: varchar&lt;/div&gt;&lt;div&gt;media_url: text&lt;/div&gt;&lt;/div&gt;&lt;/div&gt;&lt;/div&gt;&lt;/div&gt;" style="text;strokeColor=none;fillColor=none;align=left;verticalAlign=top;spacingLeft=4;spacingRight=4;overflow=hidden;rotatable=0;points=[[0,0.5],[1,0.5]];portConstraint=eastwest;whiteSpace=wrap;html=1;" parent="uSNYwaKhcgyRO1dyMONw-1" vertex="1">
          <mxGeometry y="26" width="170" height="184" as="geometry" />
        </mxCell>
        <mxCell id="uSNYwaKhcgyRO1dyMONw-3" value="" style="line;strokeWidth=1;fillColor=none;align=left;verticalAlign=middle;spacingTop=-1;spacingLeft=3;spacingRight=3;rotatable=0;labelPosition=right;points=[];portConstraint=eastwest;strokeColor=inherit;" parent="uSNYwaKhcgyRO1dyMONw-1" vertex="1">
          <mxGeometry y="210" width="170" height="8" as="geometry" />
        </mxCell>
        <mxCell id="uSNYwaKhcgyRO1dyMONw-5" value="User" style="swimlane;fontStyle=1;align=center;verticalAlign=top;childLayout=stackLayout;horizontal=1;startSize=26;horizontalStack=0;resizeParent=1;resizeParentMax=0;resizeLast=0;collapsible=1;marginBottom=0;whiteSpace=wrap;html=1;" parent="1" vertex="1">
          <mxGeometry x="2250" y="120" width="170" height="118" as="geometry" />
        </mxCell>
        <mxCell id="uSNYwaKhcgyRO1dyMONw-6" value="&lt;div&gt;id: bigserial&lt;/div&gt;&lt;div&gt;username: varchar&lt;/div&gt;&lt;div&gt;password: varchar&lt;/div&gt;&lt;div&gt;email: varchar&lt;/div&gt;&lt;div&gt;role_id: bigint&lt;/div&gt;" style="text;strokeColor=none;fillColor=none;align=left;verticalAlign=top;spacingLeft=4;spacingRight=4;overflow=hidden;rotatable=0;points=[[0,0.5],[1,0.5]];portConstraint=eastwest;whiteSpace=wrap;html=1;" parent="uSNYwaKhcgyRO1dyMONw-5" vertex="1">
          <mxGeometry y="26" width="170" height="84" as="geometry" />
        </mxCell>
        <mxCell id="uSNYwaKhcgyRO1dyMONw-7" value="" style="line;strokeWidth=1;fillColor=none;align=left;verticalAlign=middle;spacingTop=-1;spacingLeft=3;spacingRight=3;rotatable=0;labelPosition=right;points=[];portConstraint=eastwest;strokeColor=inherit;" parent="uSNYwaKhcgyRO1dyMONw-5" vertex="1">
          <mxGeometry y="110" width="170" height="8" as="geometry" />
        </mxCell>
        <mxCell id="uSNYwaKhcgyRO1dyMONw-8" value="Role" style="swimlane;fontStyle=1;align=center;verticalAlign=top;childLayout=stackLayout;horizontal=1;startSize=26;horizontalStack=0;resizeParent=1;resizeParentMax=0;resizeLast=0;collapsible=1;marginBottom=0;whiteSpace=wrap;html=1;" parent="1" vertex="1">
          <mxGeometry x="2490" y="110" width="160" height="98" as="geometry" />
        </mxCell>
        <mxCell id="uSNYwaKhcgyRO1dyMONw-9" value="&lt;div&gt;id: bigserial&lt;/div&gt;&lt;div&gt;permission_id: bigint&lt;/div&gt;&lt;div&gt;name: varchar&lt;/div&gt;" style="text;strokeColor=none;fillColor=none;align=left;verticalAlign=top;spacingLeft=4;spacingRight=4;overflow=hidden;rotatable=0;points=[[0,0.5],[1,0.5]];portConstraint=eastwest;whiteSpace=wrap;html=1;" parent="uSNYwaKhcgyRO1dyMONw-8" vertex="1">
          <mxGeometry y="26" width="160" height="64" as="geometry" />
        </mxCell>
        <mxCell id="uSNYwaKhcgyRO1dyMONw-10" value="" style="line;strokeWidth=1;fillColor=none;align=left;verticalAlign=middle;spacingTop=-1;spacingLeft=3;spacingRight=3;rotatable=0;labelPosition=right;points=[];portConstraint=eastwest;strokeColor=inherit;" parent="uSNYwaKhcgyRO1dyMONw-8" vertex="1">
          <mxGeometry y="90" width="160" height="8" as="geometry" />
        </mxCell>
        <mxCell id="uSNYwaKhcgyRO1dyMONw-11" value="RolePermission" style="swimlane;fontStyle=1;align=center;verticalAlign=top;childLayout=stackLayout;horizontal=1;startSize=26;horizontalStack=0;resizeParent=1;resizeParentMax=0;resizeLast=0;collapsible=1;marginBottom=0;whiteSpace=wrap;html=1;" parent="1" vertex="1">
          <mxGeometry x="2710" y="202" width="160" height="98" as="geometry" />
        </mxCell>
        <mxCell id="uSNYwaKhcgyRO1dyMONw-12" value="&lt;div&gt;role_id: bigint&lt;/div&gt;&lt;div&gt;permission_id: bigint&lt;/div&gt;" style="text;strokeColor=none;fillColor=none;align=left;verticalAlign=top;spacingLeft=4;spacingRight=4;overflow=hidden;rotatable=0;points=[[0,0.5],[1,0.5]];portConstraint=eastwest;whiteSpace=wrap;html=1;" parent="uSNYwaKhcgyRO1dyMONw-11" vertex="1">
          <mxGeometry y="26" width="160" height="64" as="geometry" />
        </mxCell>
        <mxCell id="uSNYwaKhcgyRO1dyMONw-13" value="" style="line;strokeWidth=1;fillColor=none;align=left;verticalAlign=middle;spacingTop=-1;spacingLeft=3;spacingRight=3;rotatable=0;labelPosition=right;points=[];portConstraint=eastwest;strokeColor=inherit;" parent="uSNYwaKhcgyRO1dyMONw-11" vertex="1">
          <mxGeometry y="90" width="160" height="8" as="geometry" />
        </mxCell>
        <mxCell id="uSNYwaKhcgyRO1dyMONw-20" value="Permission" style="swimlane;fontStyle=1;align=center;verticalAlign=top;childLayout=stackLayout;horizontal=1;startSize=26;horizontalStack=0;resizeParent=1;resizeParentMax=0;resizeLast=0;collapsible=1;marginBottom=0;whiteSpace=wrap;html=1;" parent="1" vertex="1">
          <mxGeometry x="2940" y="280" width="160" height="98" as="geometry" />
        </mxCell>
        <mxCell id="uSNYwaKhcgyRO1dyMONw-21" value="&lt;div&gt;id: bigserial&lt;/div&gt;&lt;div&gt;name: varchar&lt;/div&gt;&lt;div&gt;description: text&lt;/div&gt;" style="text;strokeColor=none;fillColor=none;align=left;verticalAlign=top;spacingLeft=4;spacingRight=4;overflow=hidden;rotatable=0;points=[[0,0.5],[1,0.5]];portConstraint=eastwest;whiteSpace=wrap;html=1;" parent="uSNYwaKhcgyRO1dyMONw-20" vertex="1">
          <mxGeometry y="26" width="160" height="64" as="geometry" />
        </mxCell>
        <mxCell id="uSNYwaKhcgyRO1dyMONw-22" value="" style="line;strokeWidth=1;fillColor=none;align=left;verticalAlign=middle;spacingTop=-1;spacingLeft=3;spacingRight=3;rotatable=0;labelPosition=right;points=[];portConstraint=eastwest;strokeColor=inherit;" parent="uSNYwaKhcgyRO1dyMONw-20" vertex="1">
          <mxGeometry y="90" width="160" height="8" as="geometry" />
        </mxCell>
        <mxCell id="uSNYwaKhcgyRO1dyMONw-26" value="Tag" style="swimlane;fontStyle=1;align=center;verticalAlign=top;childLayout=stackLayout;horizontal=1;startSize=26;horizontalStack=0;resizeParent=1;resizeParentMax=0;resizeLast=0;collapsible=1;marginBottom=0;whiteSpace=wrap;html=1;" parent="1" vertex="1">
          <mxGeometry x="1740" y="510" width="170" height="98" as="geometry" />
        </mxCell>
        <mxCell id="uSNYwaKhcgyRO1dyMONw-27" value="id: bigserial&lt;div&gt;name: varchar&lt;/div&gt;" style="text;strokeColor=none;fillColor=none;align=left;verticalAlign=top;spacingLeft=4;spacingRight=4;overflow=hidden;rotatable=0;points=[[0,0.5],[1,0.5]];portConstraint=eastwest;whiteSpace=wrap;html=1;" parent="uSNYwaKhcgyRO1dyMONw-26" vertex="1">
          <mxGeometry y="26" width="170" height="64" as="geometry" />
        </mxCell>
        <mxCell id="uSNYwaKhcgyRO1dyMONw-28" value="" style="line;strokeWidth=1;fillColor=none;align=left;verticalAlign=middle;spacingTop=-1;spacingLeft=3;spacingRight=3;rotatable=0;labelPosition=right;points=[];portConstraint=eastwest;strokeColor=inherit;" parent="uSNYwaKhcgyRO1dyMONw-26" vertex="1">
          <mxGeometry y="90" width="170" height="8" as="geometry" />
        </mxCell>
        <mxCell id="uSNYwaKhcgyRO1dyMONw-29" value="EventTag" style="swimlane;fontStyle=1;align=center;verticalAlign=top;childLayout=stackLayout;horizontal=1;startSize=26;horizontalStack=0;resizeParent=1;resizeParentMax=0;resizeLast=0;collapsible=1;marginBottom=0;whiteSpace=wrap;html=1;" parent="1" vertex="1">
          <mxGeometry x="2040" y="390" width="170" height="98" as="geometry" />
        </mxCell>
        <mxCell id="uSNYwaKhcgyRO1dyMONw-30" value="event_id: bigserial&lt;div&gt;tag_id: bigserial&lt;/div&gt;" style="text;strokeColor=none;fillColor=none;align=left;verticalAlign=top;spacingLeft=4;spacingRight=4;overflow=hidden;rotatable=0;points=[[0,0.5],[1,0.5]];portConstraint=eastwest;whiteSpace=wrap;html=1;" parent="uSNYwaKhcgyRO1dyMONw-29" vertex="1">
          <mxGeometry y="26" width="170" height="64" as="geometry" />
        </mxCell>
        <mxCell id="uSNYwaKhcgyRO1dyMONw-31" value="" style="line;strokeWidth=1;fillColor=none;align=left;verticalAlign=middle;spacingTop=-1;spacingLeft=3;spacingRight=3;rotatable=0;labelPosition=right;points=[];portConstraint=eastwest;strokeColor=inherit;" parent="uSNYwaKhcgyRO1dyMONw-29" vertex="1">
          <mxGeometry y="90" width="170" height="8" as="geometry" />
        </mxCell>
        <mxCell id="uSNYwaKhcgyRO1dyMONw-32" value="Reaction" style="swimlane;fontStyle=1;align=center;verticalAlign=top;childLayout=stackLayout;horizontal=1;startSize=26;horizontalStack=0;resizeParent=1;resizeParentMax=0;resizeLast=0;collapsible=1;marginBottom=0;whiteSpace=wrap;html=1;" parent="1" vertex="1">
          <mxGeometry x="1230" y="450" width="170" height="98" as="geometry" />
        </mxCell>
        <mxCell id="uSNYwaKhcgyRO1dyMONw-33" value="id: bigserial&lt;div&gt;name: varchar&lt;/div&gt;&lt;div&gt;gif_url: text&lt;/div&gt;" style="text;strokeColor=none;fillColor=none;align=left;verticalAlign=top;spacingLeft=4;spacingRight=4;overflow=hidden;rotatable=0;points=[[0,0.5],[1,0.5]];portConstraint=eastwest;whiteSpace=wrap;html=1;" parent="uSNYwaKhcgyRO1dyMONw-32" vertex="1">
          <mxGeometry y="26" width="170" height="64" as="geometry" />
        </mxCell>
        <mxCell id="uSNYwaKhcgyRO1dyMONw-34" value="" style="line;strokeWidth=1;fillColor=none;align=left;verticalAlign=middle;spacingTop=-1;spacingLeft=3;spacingRight=3;rotatable=0;labelPosition=right;points=[];portConstraint=eastwest;strokeColor=inherit;" parent="uSNYwaKhcgyRO1dyMONw-32" vertex="1">
          <mxGeometry y="90" width="170" height="8" as="geometry" />
        </mxCell>
        <mxCell id="uSNYwaKhcgyRO1dyMONw-41" value="Comment" style="swimlane;fontStyle=1;align=center;verticalAlign=top;childLayout=stackLayout;horizontal=1;startSize=26;horizontalStack=0;resizeParent=1;resizeParentMax=0;resizeLast=0;collapsible=1;marginBottom=0;whiteSpace=wrap;html=1;" parent="1" vertex="1">
          <mxGeometry x="1400" y="100" width="170" height="118" as="geometry" />
        </mxCell>
        <mxCell id="uSNYwaKhcgyRO1dyMONw-42" value="id: bigserial&lt;div&gt;user_id: bigint&lt;/div&gt;&lt;div&gt;event_id: bigint&lt;/div&gt;&lt;div&gt;created: timestamp&lt;/div&gt;&lt;div&gt;content: text&lt;/div&gt;" style="text;strokeColor=none;fillColor=none;align=left;verticalAlign=top;spacingLeft=4;spacingRight=4;overflow=hidden;rotatable=0;points=[[0,0.5],[1,0.5]];portConstraint=eastwest;whiteSpace=wrap;html=1;" parent="uSNYwaKhcgyRO1dyMONw-41" vertex="1">
          <mxGeometry y="26" width="170" height="84" as="geometry" />
        </mxCell>
        <mxCell id="uSNYwaKhcgyRO1dyMONw-43" value="" style="line;strokeWidth=1;fillColor=none;align=left;verticalAlign=middle;spacingTop=-1;spacingLeft=3;spacingRight=3;rotatable=0;labelPosition=right;points=[];portConstraint=eastwest;strokeColor=inherit;" parent="uSNYwaKhcgyRO1dyMONw-41" vertex="1">
          <mxGeometry y="110" width="170" height="8" as="geometry" />
        </mxCell>
        <mxCell id="uSNYwaKhcgyRO1dyMONw-51" value="" style="edgeStyle=entityRelationEdgeStyle;fontSize=12;html=1;endArrow=ERoneToMany;rounded=0;exitX=0;exitY=0.5;exitDx=0;exitDy=0;entryX=1;entryY=0.5;entryDx=0;entryDy=0;" parent="1" source="uSNYwaKhcgyRO1dyMONw-2" target="uSNYwaKhcgyRO1dyMONw-42" edge="1">
          <mxGeometry width="100" height="100" relative="1" as="geometry">
            <mxPoint x="1790" y="258" as="sourcePoint" />
            <mxPoint x="1600" y="190" as="targetPoint" />
          </mxGeometry>
        </mxCell>
        <mxCell id="uSNYwaKhcgyRO1dyMONw-52" value="" style="edgeStyle=entityRelationEdgeStyle;fontSize=12;html=1;endArrow=ERoneToMany;rounded=0;entryX=1.002;entryY=0.335;entryDx=0;entryDy=0;entryPerimeter=0;exitX=0;exitY=0.598;exitDx=0;exitDy=0;exitPerimeter=0;" parent="1" source="uSNYwaKhcgyRO1dyMONw-2" target="uSNYwaKhcgyRO1dyMONw-36" edge="1">
          <mxGeometry width="100" height="100" relative="1" as="geometry">
            <mxPoint x="1800" y="268" as="sourcePoint" />
            <mxPoint x="1610" y="200" as="targetPoint" />
          </mxGeometry>
        </mxCell>
        <mxCell id="uSNYwaKhcgyRO1dyMONw-53" value="" style="edgeStyle=entityRelationEdgeStyle;fontSize=12;html=1;endArrow=ERoneToMany;rounded=0;entryX=0;entryY=0.5;entryDx=0;entryDy=0;exitX=1;exitY=0.5;exitDx=0;exitDy=0;" parent="1" source="uSNYwaKhcgyRO1dyMONw-33" target="uSNYwaKhcgyRO1dyMONw-36" edge="1">
          <mxGeometry width="100" height="100" relative="1" as="geometry">
            <mxPoint x="1450" y="510" as="sourcePoint" />
            <mxPoint x="1540" y="440" as="targetPoint" />
          </mxGeometry>
        </mxCell>
        <mxCell id="uSNYwaKhcgyRO1dyMONw-54" value="" style="edgeStyle=entityRelationEdgeStyle;fontSize=12;html=1;endArrow=ERoneToMany;rounded=0;entryX=0.007;entryY=0.31;entryDx=0;entryDy=0;exitX=1;exitY=0.5;exitDx=0;exitDy=0;entryPerimeter=0;" parent="1" source="uSNYwaKhcgyRO1dyMONw-2" target="uSNYwaKhcgyRO1dyMONw-30" edge="1">
          <mxGeometry width="100" height="100" relative="1" as="geometry">
            <mxPoint x="1800" y="268" as="sourcePoint" />
            <mxPoint x="1605" y="353" as="targetPoint" />
          </mxGeometry>
        </mxCell>
        <mxCell id="uSNYwaKhcgyRO1dyMONw-55" value="" style="edgeStyle=entityRelationEdgeStyle;fontSize=12;html=1;endArrow=ERoneToMany;rounded=0;entryX=0.007;entryY=0.692;entryDx=0;entryDy=0;exitX=1;exitY=0.5;exitDx=0;exitDy=0;entryPerimeter=0;" parent="1" source="uSNYwaKhcgyRO1dyMONw-27" target="uSNYwaKhcgyRO1dyMONw-30" edge="1">
          <mxGeometry width="100" height="100" relative="1" as="geometry">
            <mxPoint x="1810" y="278" as="sourcePoint" />
            <mxPoint x="1615" y="363" as="targetPoint" />
          </mxGeometry>
        </mxCell>
        <mxCell id="uSNYwaKhcgyRO1dyMONw-56" value="" style="edgeStyle=entityRelationEdgeStyle;fontSize=12;html=1;endArrow=ERoneToMany;rounded=0;exitX=0;exitY=0.5;exitDx=0;exitDy=0;entryX=0.996;entryY=0.336;entryDx=0;entryDy=0;entryPerimeter=0;" parent="1" source="uSNYwaKhcgyRO1dyMONw-6" target="uSNYwaKhcgyRO1dyMONw-2" edge="1">
          <mxGeometry width="100" height="100" relative="1" as="geometry">
            <mxPoint x="1820" y="288" as="sourcePoint" />
            <mxPoint x="1960" y="210" as="targetPoint" />
          </mxGeometry>
        </mxCell>
        <mxCell id="uSNYwaKhcgyRO1dyMONw-59" value="" style="edgeStyle=entityRelationEdgeStyle;fontSize=12;html=1;endArrow=ERoneToMany;rounded=0;exitX=0;exitY=0.5;exitDx=0;exitDy=0;entryX=1;entryY=0.5;entryDx=0;entryDy=0;" parent="1" source="uSNYwaKhcgyRO1dyMONw-9" target="uSNYwaKhcgyRO1dyMONw-6" edge="1">
          <mxGeometry width="100" height="100" relative="1" as="geometry">
            <mxPoint x="1850" y="318" as="sourcePoint" />
            <mxPoint x="2290" y="260" as="targetPoint" />
          </mxGeometry>
        </mxCell>
        <mxCell id="uSNYwaKhcgyRO1dyMONw-60" value="" style="edgeStyle=entityRelationEdgeStyle;fontSize=12;html=1;endArrow=ERoneToMany;rounded=0;entryX=-0.007;entryY=0.364;entryDx=0;entryDy=0;exitX=1;exitY=0.5;exitDx=0;exitDy=0;entryPerimeter=0;" parent="1" source="uSNYwaKhcgyRO1dyMONw-9" target="uSNYwaKhcgyRO1dyMONw-12" edge="1">
          <mxGeometry width="100" height="100" relative="1" as="geometry">
            <mxPoint x="1860" y="328" as="sourcePoint" />
            <mxPoint x="1665" y="413" as="targetPoint" />
          </mxGeometry>
        </mxCell>
        <mxCell id="uSNYwaKhcgyRO1dyMONw-61" value="" style="edgeStyle=entityRelationEdgeStyle;fontSize=12;html=1;endArrow=ERoneToMany;rounded=0;exitX=0;exitY=0.5;exitDx=0;exitDy=0;entryX=1;entryY=0.5;entryDx=0;entryDy=0;" parent="1" source="uSNYwaKhcgyRO1dyMONw-21" target="uSNYwaKhcgyRO1dyMONw-12" edge="1">
          <mxGeometry width="100" height="100" relative="1" as="geometry">
            <mxPoint x="1870" y="338" as="sourcePoint" />
            <mxPoint x="2621" y="280" as="targetPoint" />
            <Array as="points">
              <mxPoint x="2590" y="320" />
              <mxPoint x="2580" y="320" />
              <mxPoint x="2580" y="340" />
            </Array>
          </mxGeometry>
        </mxCell>
        <mxCell id="PkoxDoATNYXxylGoSzlV-2" value="Events" style="swimlane;whiteSpace=wrap;html=1;" vertex="1" parent="1">
          <mxGeometry x="1215" y="20" width="1015" height="690" as="geometry" />
        </mxCell>
        <mxCell id="uSNYwaKhcgyRO1dyMONw-35" value="EventReaction" style="swimlane;fontStyle=1;align=center;verticalAlign=top;childLayout=stackLayout;horizontal=1;startSize=26;horizontalStack=0;resizeParent=1;resizeParentMax=0;resizeLast=0;collapsible=1;marginBottom=0;whiteSpace=wrap;html=1;" parent="PkoxDoATNYXxylGoSzlV-2" vertex="1">
          <mxGeometry x="325" y="390" width="170" height="118" as="geometry" />
        </mxCell>
        <mxCell id="uSNYwaKhcgyRO1dyMONw-36" value="event_id: bigint&lt;div&gt;user_id: bigint&lt;/div&gt;&lt;div&gt;reaction_id: bigint&lt;/div&gt;&lt;div&gt;created: timestamp&lt;/div&gt;" style="text;strokeColor=none;fillColor=none;align=left;verticalAlign=top;spacingLeft=4;spacingRight=4;overflow=hidden;rotatable=0;points=[[0,0.5],[1,0.5]];portConstraint=eastwest;whiteSpace=wrap;html=1;" parent="uSNYwaKhcgyRO1dyMONw-35" vertex="1">
          <mxGeometry y="26" width="170" height="84" as="geometry" />
        </mxCell>
        <mxCell id="uSNYwaKhcgyRO1dyMONw-37" value="" style="line;strokeWidth=1;fillColor=none;align=left;verticalAlign=middle;spacingTop=-1;spacingLeft=3;spacingRight=3;rotatable=0;labelPosition=right;points=[];portConstraint=eastwest;strokeColor=inherit;" parent="uSNYwaKhcgyRO1dyMONw-35" vertex="1">
          <mxGeometry y="110" width="170" height="8" as="geometry" />
        </mxCell>
        <mxCell id="PkoxDoATNYXxylGoSzlV-3" value="Users" style="swimlane;whiteSpace=wrap;html=1;" vertex="1" parent="1">
          <mxGeometry x="2230" y="20" width="940" height="690" as="geometry" />
        </mxCell>
        <mxCell id="PkoxDoATNYXxylGoSzlV-4" value="" style="edgeStyle=entityRelationEdgeStyle;fontSize=12;html=1;endArrow=ERoneToMany;rounded=0;exitX=-0.006;exitY=0.648;exitDx=0;exitDy=0;exitPerimeter=0;entryX=1.002;entryY=0.556;entryDx=0;entryDy=0;entryPerimeter=0;" edge="1" parent="1" source="uSNYwaKhcgyRO1dyMONw-6" target="uSNYwaKhcgyRO1dyMONw-36">
          <mxGeometry width="100" height="100" relative="1" as="geometry">
            <mxPoint x="2249" y="210" as="sourcePoint" />
            <mxPoint x="1651" y="400" as="targetPoint" />
            <Array as="points">
              <mxPoint x="1990" y="350" />
            </Array>
          </mxGeometry>
        </mxCell>
      </root>
    </mxGraphModel>
  </diagram>
</mxfile>
